<svg width="501.66875px" height="138.8px" xmlns="http://www.w3.org/2000/svg" viewBox="-0.8343749999999943 5.599999999999994 501.66875 138.8" style="background: rgba(0, 0, 0, 0);" preserveAspectRatio="xMidYMid"><defs><linearGradient id="editing-outline-gradient" x1="-0.41354545764260087" x2="1.4135454576426008" y1="0.09326335692419985" y2="0.9067366430758002"><stop offset="0" stop-color="#ee4208"></stop><stop offset="1" stop-color="#4139ff"></stop></linearGradient><filter id="editing-outline" x="-100%" y="-100%" width="300%" height="300%"><feMorphology in="SourceGraphic" operator="dilate" radius="1" result="outline"></feMorphology><feComposite operator="out" in="outline" in2="SourceAlpha"></feComposite></filter></defs><g filter="url(#editing-outline)"><g transform="translate(72.78499484062195, 100.34500312805176)"><path d="M40.90 0L1.28 0L1.28-10.50L4.48-10.50L4.48-39.30L1.28-39.30L1.28-49.79L28.29-49.79L28.29-39.30L22.40-39.30L22.40-10.50L28.16-10.50L28.16-16.38L40.90-16.38L40.90 0ZM82.24-10.50L85.06-10.50L85.06 0L67.52 0L67.52-4.99L67.52-4.99Q62.91 0.90 56 0.90L56 0.90L56 0.90Q50.69 0.90 48.03-2.43L48.03-2.43L48.03-2.43Q45.38-5.76 45.38-11.58L45.38-11.58L45.38-25.09L42.56-25.09L42.56-35.58L60.10-35.58L60.10-14.59L60.10-14.59Q60.10-12.48 61.02-11.49L61.02-11.49L61.02-11.49Q61.95-10.50 63.81-10.50L63.81-10.50L63.81-10.50Q65.66-10.50 66.59-11.49L66.59-11.49L66.59-11.49Q67.52-12.48 67.52-14.59L67.52-14.59L67.52-25.09L64.06-25.09L64.06-35.58L82.24-35.58L82.24-10.50ZM119.30-19.01L125.44-10.50L128.19-10.50L128.19 0L112.51 0L105.92-12.29L104.38-12.29L104.38 0L86.85 0L86.85-10.50L89.66-10.50L89.66-39.30L86.85-39.30L86.85-49.79L104.38-49.79L104.38-23.81L105.92-23.81L113.86-35.58L127.36-35.58L127.36-25.09L124.74-25.09L119.30-19.01ZM164.74-10.50L167.55-10.50L167.55 0L150.66 0L150.66-4.35L150.66-4.35Q149.25-2.30 146.72-0.70L146.72-0.70L146.72-0.70Q144.19 0.90 140.54 0.90L140.54 0.90L140.54 0.90Q135.74 0.90 132.99-1.66L132.99-1.66L132.99-1.66Q130.24-4.22 130.24-8.90L130.24-8.90L130.24-8.90Q130.24-20.99 150.78-21.31L150.78-21.31L150.78-21.31Q150.59-23.49 149.12-24.29L149.12-24.29L149.12-24.29Q147.65-25.09 144.13-25.09L144.13-25.09L144.13-25.09Q141.25-25.09 137.95-24.48L137.95-24.48L137.95-24.48Q134.66-23.87 131.90-22.85L131.90-22.85L131.90-34.62L131.90-34.62Q135.30-35.46 139.26-35.97L139.26-35.97L139.26-35.97Q143.23-36.48 147.01-36.48L147.01-36.48L147.01-36.48Q156.54-36.48 160.64-33.02L160.64-33.02L160.64-33.02Q164.74-29.57 164.74-22.34L164.74-22.34L164.74-10.50ZM150.66-14.59L150.66-14.98L150.66-14.98Q147.78-14.98 146.21-14.21L146.21-14.21L146.21-14.21Q144.64-13.44 144.64-11.65L144.64-11.65L144.64-11.65Q144.64-10.56 145.31-9.89L145.31-9.89L145.31-9.89Q145.98-9.22 147.20-9.22L147.20-9.22L147.20-9.22Q148.86-9.22 149.76-10.62L149.76-10.62L149.76-10.62Q150.66-12.03 150.66-14.59L150.66-14.59ZM236.67-49.79L236.67-34.30L225.66-34.30L225.66-39.30L221.57-39.30L221.57-10.50L226.05-10.50L226.05 0L199.17 0L199.17-10.50L203.65-10.50L203.65-39.30L199.55-39.30L199.55-34.30L188.54-34.30L188.54-49.79L236.67-49.79ZM254.85-39.10L241.79-39.10L241.79-49.79L254.85-49.79L254.85-39.10ZM259.07 0L238.72 0L238.72-10.50L241.54-10.50L241.54-25.09L238.72-25.09L238.72-35.58L256.26-35.58L256.26-10.50L259.07-10.50L259.07 0ZM295.17 0L260.61 0L260.61-9.54L276.22-25.09L270.53-25.09L270.53-22.78L260.99-22.78L260.99-35.58L294.59-35.58L294.59-26.43L279.36-10.50L285.50-10.50L285.50-14.08L295.17-14.08L295.17 0ZM313.34-39.10L300.29-39.10L300.29-49.79L313.34-49.79L313.34-39.10ZM317.57 0L297.22 0L297.22-10.50L300.03-10.50L300.03-25.09L297.22-25.09L297.22-35.58L314.75-35.58L314.75-10.50L317.57-10.50L317.57 0ZM338.50 0.90L338.50 0.90Q329.34 0.90 324.22-3.87L324.22-3.87L324.22-3.87Q319.10-8.64 319.10-17.79L319.10-17.79L319.10-17.79Q319.10-26.94 324.22-31.71L324.22-31.71L324.22-31.71Q329.34-36.48 338.43-36.48L338.43-36.48L338.43-36.48Q342.85-36.48 346.88-35.26L346.88-35.26L346.88-35.26Q350.91-34.05 353.15-32.51L353.15-32.51L353.15-19.84L342.14-19.84L342.14-20.99L342.14-20.99Q342.14-23.10 341.25-24.10L341.25-24.10L341.25-24.10Q340.35-25.09 338.43-25.09L338.43-25.09L338.43-25.09Q334.72-25.09 334.72-20.99L334.72-20.99L334.72-15.49L334.72-15.49Q334.72-10.50 340.42-10.50L340.42-10.50L340.42-10.50Q345.73-10.50 352.77-11.65L352.77-11.65L352.77-1.60L352.77-1.60Q350.59-0.64 346.66 0.13L346.66 0.13L346.66 0.13Q342.72 0.90 338.50 0.90L338.50 0.90Z" fill="url(#editing-outline-gradient)"></path></g></g><style>text {
  font-size: 64px;
  font-family: Arial Black;
  dominant-baseline: central;
  text-anchor: middle;
}</style></svg>